<svg width="41" height="18" viewBox="0 0 41 18" fill="none" xmlns="http://www.w3.org/2000/svg">
<path d="M13.8579 0.0246948C8.66539 0.0484533 7.93787 0.0654238 7.42621 0.177428C6.05512 0.46932 5.06778 0.975038 4.57611 1.63349C4.32827 1.96611 4.27631 2.17654 4.26831 2.82821C4.26831 3.14725 4.27631 3.41878 4.29229 3.43235C4.30828 3.44593 4.55212 3.50024 4.83194 3.55454C5.50749 3.68352 5.99116 3.82607 6.61475 4.08402C7.75399 4.55579 8.45752 5.10564 8.82528 5.815C9.00916 6.16798 9.04114 6.37842 9.04114 7.36949V8.28589L9.15306 8.28929C9.21302 8.29268 14.3936 8.30626 20.6654 8.31983L32.0658 8.34698V7.56295C32.0658 6.26641 32.1418 5.94058 32.5695 5.37377C33.1851 4.56598 34.4522 3.91431 36.1031 3.55115L36.6828 3.42557L36.6788 2.81802C36.6788 2.11545 36.6468 1.98987 36.351 1.58597C35.8393 0.876609 34.88 0.398044 33.381 0.102759C33.1411 0.0586356 32.7774 0.0416652 31.5062 0.0213007C29.4196 -0.00924606 20.3456 -0.00585198 13.8579 0.0246948Z" fill="#FF5524"/>
<path d="M3.2049 4.92912C2.22555 5.03095 1.63794 5.21423 1.02235 5.59776C0.518687 5.91341 0.190905 6.27318 0.0629898 6.65671C-0.00096766 6.84339 -0.004965 7.11491 0.00302968 9.83018C0.00702702 11.6019 0.0270137 12.8882 0.0509978 13.0206C0.0949685 13.282 0.326814 13.713 0.586641 14.0219C1.07432 14.5989 2.02169 15.1623 3.00503 15.4576C3.6526 15.6476 4.81983 15.8377 5.36746 15.8377H5.55134L5.57932 16.4724C5.6113 17.2429 5.65527 17.3549 5.99904 17.5924C6.45474 17.9115 6.9624 18.0337 7.64195 17.9896C8.20557 17.9556 8.56933 17.83 8.93309 17.5381C9.23689 17.2972 9.26087 17.2259 9.27286 16.4894L9.28885 15.8377H20.4934H31.6979L31.7139 16.4894C31.7259 17.0833 31.7339 17.158 31.8139 17.2802C32.0657 17.6773 32.6533 17.9488 33.3449 17.993C34.0284 18.0337 34.572 17.8979 35.0077 17.5857C35.3435 17.3379 35.3795 17.2496 35.4075 16.4962L35.4355 15.8513L35.9791 15.8106C37.3582 15.7087 38.5854 15.3456 39.4928 14.772C40.0684 14.4054 40.4321 14.0524 40.692 13.6112C41.0197 13.058 40.9998 13.282 40.9998 9.84715L40.9958 6.79248L40.9038 6.58883C40.5401 5.81159 39.6127 5.2312 38.3695 5.00379C37.8219 4.90537 36.7666 4.89858 36.2709 4.99022C34.9198 5.23799 33.9485 5.85232 33.6606 6.63635C33.5847 6.85018 33.5807 6.97915 33.5567 9.15815L33.5327 11.4593H20.4934H7.45008L7.43009 9.15815C7.4101 6.68047 7.4141 6.72459 7.19425 6.35125C6.82249 5.72334 5.82316 5.1735 4.71989 4.99361C4.38811 4.93931 3.47272 4.90197 3.2049 4.92912Z" fill="#FF5524"/>
</svg>
