<svg width="21" height="17" viewBox="0 0 21 17" fill="none" xmlns="http://www.w3.org/2000/svg">
<path d="M5.66663 7.33333V9.16667H14.8333V7.33333C14.8333 5.62833 16.0066 4.2075 17.5833 3.795V2.75C17.5833 1.2375 16.3458 0 14.8333 0H5.66663C4.15413 0 2.91663 1.2375 2.91663 2.75V3.795C4.49329 4.2075 5.66663 5.62833 5.66663 7.33333Z" fill="#595959"/>
<path d="M18.5 5.5C17.4916 5.5 16.6666 6.325 16.6666 7.33333V11H3.83329V7.33333C3.83329 6.325 3.00829 5.5 1.99996 5.5C0.991626 5.5 0.166626 6.325 0.166626 7.33333V11.9167C0.166626 13.4292 1.40413 14.6667 2.91663 14.6667V15.5833C2.91663 16.0875 3.32913 16.5 3.83329 16.5C4.33746 16.5 4.74996 16.0875 4.74996 15.5833V14.6667H15.75V15.5833C15.75 16.0875 16.1625 16.5 16.6666 16.5C17.1708 16.5 17.5833 16.0875 17.5833 15.5833V14.6667C19.0958 14.6667 20.3333 13.4292 20.3333 11.9167V7.33333C20.3333 6.325 19.5083 5.5 18.5 5.5Z" fill="#595959"/>
<path d="M18.5 5.5C17.4916 5.5 16.6666 6.325 16.6666 7.33333V11H3.83329V7.33333C3.83329 6.325 3.00829 5.5 1.99996 5.5C0.991626 5.5 0.166626 6.325 0.166626 7.33333V11.9167C0.166626 13.4292 1.40413 14.6667 2.91663 14.6667V15.5833C2.91663 16.0875 3.32913 16.5 3.83329 16.5C4.33746 16.5 4.74996 16.0875 4.74996 15.5833V14.6667H15.75V15.5833C15.75 16.0875 16.1625 16.5 16.6666 16.5C17.1708 16.5 17.5833 16.0875 17.5833 15.5833V14.6667C19.0958 14.6667 20.3333 13.4292 20.3333 11.9167V7.33333C20.3333 6.325 19.5083 5.5 18.5 5.5Z" fill="#595959"/>
</svg>
